HIERARCHY
ROOT Hips
{
	OFFSET 0.00000 0.00000 0.00000
	CHANNELS 6 Xposition Yposition Zposition Zrotation Yrotation Xrotation 
	JOINT LHipJoint
	{
		OFFSET 0 0 0
		CHANNELS 3 Zrotation Yrotation Xrotation
		JOINT LeftUpLeg
		{
			OFFSET 1.82298 -1.58346 0.87084
			CHANNELS 3 Zrotation Yrotation Xrotation
			JOINT LeftLeg
			{
				OFFSET 2.43790 -6.69809 0.00000
				CHANNELS 3 Zrotation Yrotation Xrotation
				JOINT LeftFoot
				{
					OFFSET 2.59288 -7.12389 0.00000
					CHANNELS 3 Zrotation Yrotation Xrotation
					JOINT LeftToeBase
					{
						OFFSET 0.14552 -0.39981 2.13160
						CHANNELS 3 Zrotation Yrotation Xrotation
						End Site
						{
							OFFSET 0.00000 -0.00000 1.09427
						}
					}
				}
			}
		}
	}
	JOINT RHipJoint
	{
		OFFSET 0 0 0
		CHANNELS 3 Zrotation Yrotation Xrotation
		JOINT RightUpLeg
		{
			OFFSET -1.77229 -1.58346 0.87084
			CHANNELS 3 Zrotation Yrotation Xrotation
			JOINT RightLeg
			{
				OFFSET -2.50703 -6.88801 0.00000
				CHANNELS 3 Zrotation Yrotation Xrotation
				JOINT RightFoot
				{
					OFFSET -2.61620 -7.18796 0.00000
					CHANNELS 3 Zrotation Yrotation Xrotation
					JOINT RightToeBase
					{
						OFFSET -0.15190 -0.41735 2.15974
						CHANNELS 3 Zrotation Yrotation Xrotation
						End Site
						{
							OFFSET -0.00000 -0.00000 1.10919
						}
					}
				}
			}
		}
	}
	JOINT LowerBack
	{
		OFFSET 0 0 0
		CHANNELS 3 Zrotation Yrotation Xrotation
		JOINT Spine
		{
			OFFSET -0.03602 2.12423 -0.30249
			CHANNELS 3 Zrotation Yrotation Xrotation
			JOINT Spine1
			{
				OFFSET 0.02717 2.10043 0.12912
				CHANNELS 3 Zrotation Yrotation Xrotation
				JOINT Neck
				{
					OFFSET 0 0 0
					CHANNELS 3 Zrotation Yrotation Xrotation
					JOINT Neck1
					{
						OFFSET -0.06371 1.88656 0.11602
						CHANNELS 3 Zrotation Yrotation Xrotation
						JOINT Head
						{
							OFFSET 0.08208 1.87759 -0.11505
							CHANNELS 3 Zrotation Yrotation Xrotation
							End Site
							{
								OFFSET 0.03382 1.93090 -0.05483
							}
						}
					}
				}
				JOINT LeftShoulder
				{
					OFFSET 0 0 0
					CHANNELS 3 Zrotation Yrotation Xrotation
					JOINT LeftArm
					{
						OFFSET 3.30903 1.40357 0.20156
						CHANNELS 3 Zrotation Yrotation Xrotation
						JOINT LeftForeArm
						{
							OFFSET 5.43301 -0.00000 0.00000
							CHANNELS 3 Zrotation Yrotation Xrotation
							JOINT LeftHand
							{
								OFFSET 3.15936 -0.00000 0.00000
								CHANNELS 3 Zrotation Yrotation Xrotation
								JOINT LeftFingerBase
								{
									OFFSET 0 0 0
									CHANNELS 3 Zrotation Yrotation Xrotation
									JOINT LeftHandIndex1
									{
										OFFSET 0.71283 -0.00000 0.00000
										CHANNELS 3 Zrotation Yrotation Xrotation
										End Site
										{
											OFFSET 0.57470 -0.00000 0.00000
										}
									}
								}
								JOINT LThumb
								{
									OFFSET 0 0 0
									CHANNELS 3 Zrotation Yrotation Xrotation
									End Site
									{
										OFFSET 0.58347 -0.00000 0.58347
									}
								}
							}
						}
					}
				}
				JOINT RightShoulder
				{
					OFFSET 0 0 0
					CHANNELS 3 Zrotation Yrotation Xrotation
					JOINT RightArm
					{
						OFFSET -3.12947 1.60037 -0.00464
						CHANNELS 3 Zrotation Yrotation Xrotation
						JOINT RightForeArm
						{
							OFFSET -5.34194 -0.00000 0.00000
							CHANNELS 3 Zrotation Yrotation Xrotation
							JOINT RightHand
							{
								OFFSET -3.19351 -0.00000 0.00000
								CHANNELS 3 Zrotation Yrotation Xrotation
								JOINT RightFingerBase
								{
									OFFSET 0 0 0
									CHANNELS 3 Zrotation Yrotation Xrotation
									JOINT RightHandIndex1
									{
										OFFSET -0.74386 -0.00000 0.00000
										CHANNELS 3 Zrotation Yrotation Xrotation
										End Site
										{
											OFFSET -0.59972 -0.00000 0.00000
										}
									}
								}
								JOINT RThumb
								{
									OFFSET 0 0 0
									CHANNELS 3 Zrotation Yrotation Xrotation
									End Site
									{
										OFFSET -0.60888 -0.00000 0.60888
									}
								}
							}
						}
					}
				}
			}
		}
	}
}
MOTION
Frames: 8
Frame Time: .0083333
-1.352 13.8699 -38.6208 0 0 0 0 0 0 -21 0 0 0 0 0 0 0 0 0 0 0 0 0 0 21 0 0 0 0 0 0 0 0 0 0 0 0 0 0 0 0 0 0 0 0 0 0 -16 0 0 21 0 0 11 0 0 0 -8 0 0 0 0 0 0 0 0 0 0 0 0 0 0 0 0 0 0 0 0 8 0 0 0 0 0 0 0 0 0 0 0 0 0 0 0 0 0
-1.3520 13.8699 -38.6208 1.3955 44.9836 2.3354 0.0000 0.0000 0.0000 -11.7707 20.5089 -33.5668 16.3949 19.6855 79.4062 4.2543 8.6286 -42.4980 0.7735 -5.6157 -15.6732 0.0000 0.0000 0.0000 2.5189 -19.4739 -65.7214 -11.8083 -18.3084 65.3798 0.2425 9.8580 -1.3529 -1.2555 -7.1034 20.0220 -8.0869 -0.7504 11.5035 0.2226 -2.2484 -3.7353 5.2559 -0.5430 -10.2431 -15.6807 -14.9946 5.3575 15.1049 -21.6026 5.3475 6.0198 -10.9149 4.0874 0.0000 -0.0000 0.0000 -76.1357 6.3516 79.5072 121.7871 -55.8146 -87.1416 -0.0000 0.0000 -83.7431 -10.3677 38.1381 -6.4461 -7.1250 0.0000 -0.0000 -51.8645 60.3748 -22.9508 0.0000 -0.0000 0.0000 68.1134 24.4040 3.5025 -86.4879 59.9533 -56.9589 0.0000 0.0000 18.2039 -48.6302 -24.2495 25.0022 7.1250 -0.0000 -0.0000 -25.0329 -62.5226 11.0231
-1.3530 13.8708 -38.6224 1.2451 44.9491 2.2708 0.0000 0.0000 0.0000 -11.6641 20.5386 -33.6412 16.4058 19.6874 79.4386 4.2462 8.6832 -42.4883 0.7828 -5.6485 -15.7680 0.0000 0.0000 0.0000 2.6521 -19.4008 -65.7459 -11.8017 -18.3056 65.3590 0.2488 9.7104 -0.8185 -1.0309 -6.4582 18.1199 -8.0067 -0.6952 11.5014 0.2606 -2.1581 -3.7302 5.2348 -0.5033 -10.2502 -15.6224 -15.0312 5.1960 15.0528 -21.6322 5.4119 5.9773 -10.9209 4.1251 0.0000 0.0000 0.0000 -76.1914 6.1855 79.5527 121.5952 -55.8697 -86.9828 -0.0000 0.0000 -83.6452 -10.6168 38.1075 -6.5988 -7.1250 0.0000 -0.0000 -52.0447 60.2927 -22.9551 0.0000 0.0000 0.0000 68.0484 24.4329 3.2996 -86.5238 59.9543 -56.9900 0.0000 0.0000 18.2044 -48.6427 -24.2577 25.0189 7.1250 -0.0000 -0.0000 -25.0562 -62.5363 11.0422
-1.3541 13.8702 -38.6222 1.2484 44.9574 2.2709 0.0000 0.0000 0.0000 -11.6676 20.5220 -33.6503 16.4081 19.6878 79.4453 4.2227 8.8384 -42.4592 0.7998 -5.7080 -15.9394 0.0000 0.0000 0.0000 2.6508 -19.4103 -65.7529 -11.8034 -18.3063 65.3643 0.2563 9.6140 -0.2702 -0.8208 -5.7806 16.1492 -7.9794 -0.7267 11.4733 0.2464 -2.1956 -3.7513 5.2103 -0.5229 -10.2526 -15.6556 -15.0103 5.3197 15.0679 -21.6203 5.3989 5.9987 -10.9212 4.1047 0.0000 0.0000 0.0000 -76.1461 6.2778 79.5620 121.6508 -55.8538 -87.0288 -0.0000 0.0000 -83.6920 -11.1670 38.2463 -6.9672 -7.1250 0.0000 -0.0000 -52.7051 60.2478 -23.2922 0.0000 0.0000 0.0000 68.0949 24.3559 3.4511 -86.5011 59.9537 -56.9703 0.0000 0.0000 18.1791 -48.6882 -24.2546 25.0514 7.1250 -0.0000 -0.0000 -25.1265 -62.5469 11.0815
-1.3546 13.8710 -38.6211 1.2733 44.9710 2.2747 0.0000 0.0000 0.0000 -11.6732 20.5248 -33.6272 16.4071 19.6876 79.4423 4.2409 8.7118 -42.4786 0.7860 -5.6597 -15.8002 0.0000 0.0000 0.0000 2.6278 -19.4251 -65.7315 -11.8024 -18.3059 65.3611 0.2625 9.5437 0.2327 -0.6221 -5.0475 14.0441 -8.0220 -0.7058 11.4891 0.2499 -2.1744 -3.7288 5.2343 -0.5111 -10.2389 -15.6313 -15.0209 5.2025 15.0484 -21.6233 5.4541 5.9775 -10.9166 4.1358 0.0000 0.0000 0.0000 -76.1633 6.2086 79.5796 121.6191 -55.8628 -87.0026 -0.0000 0.0000 -83.6863 -10.6717 38.0831 -6.6298 -7.1250 0.0000 -0.0000 -52.0617 60.2629 -22.9278 0.0000 0.0000 0.0000 68.0573 24.3888 3.3489 -86.4953 59.9535 -56.9653 0.0000 0.0000 18.1658 -48.6635 -24.2033 24.9887 7.1250 -0.0000 -0.0000 -25.0658 -62.4770 11.0116
-1.3553 13.8713 -38.6207 1.2719 44.9763 2.2699 0.0000 0.0000 0.0000 -11.6670 20.5243 -33.6246 16.4065 19.6875 79.4406 4.2401 8.7082 -42.4736 0.7857 -5.6589 -15.7978 0.0000 0.0000 0.0000 2.6295 -19.4285 -65.7270 -11.8036 -18.3064 65.3649 0.2669 9.4885 0.6674 -0.4598 -4.3497 12.0626 -8.0274 -0.6980 11.4876 0.2504 -2.1642 -3.7228 5.2358 -0.5063 -10.2326 -15.6225 -15.0234 5.1646 15.0391 -21.6242 5.4858 5.9693 -10.9149 4.1496 0.0000 0.0000 0.0000 -76.1631 6.1839 79.5993 121.5968 -55.8692 -86.9842 -0.0000 0.0000 -83.6863 -10.6257 38.0501 -6.5960 -7.1250 0.0000 -0.0000 -51.9794 60.2525 -22.8660 0.0000 0.0000 0.0000 68.0449 24.3834 3.3183 -86.4897 59.9534 -56.9605 0.0000 0.0000 18.1609 -48.6599 -24.1843 24.9696 7.1250 -0.0000 -0.0000 -25.0519 -62.4528 10.9908
-1.3560 13.8715 -38.6201 1.2844 44.9842 2.2706 0.0000 0.0000 0.0000 -11.6705 20.5217 -33.6140 16.4046 19.6872 79.4347 4.2397 8.7018 -42.4687 0.7848 -5.6556 -15.7883 0.0000 0.0000 0.0000 2.6200 -19.4391 -65.7195 -11.8046 -18.3068 65.3680 0.2705 9.4569 1.0245 -0.3348 -3.7187 10.2867 -8.0412 -0.6929 11.4862 0.2472 -2.1595 -3.7161 5.2390 -0.5039 -10.2249 -15.6173 -15.0228 5.1375 15.0355 -21.6223 5.5136 5.9646 -10.9124 4.1611 -0.0000 -0.0000 0.0000 -76.1571 6.1706 79.6177 121.5889 -55.8715 -86.9776 -0.0000 0.0000 -83.6924 -10.5479 38.0244 -6.5433 -7.1250 0.0000 -0.0000 -51.8781 60.2547 -22.8088 -0.0000 -0.0000 0.0000 68.0368 24.3758 3.2973 -86.4821 59.9532 -56.9539 0.0000 0.0000 18.1652 -48.6482 -24.1693 24.9479 7.1250 -0.0000 -0.0000 -25.0271 -62.4310 10.9663
-1.3565 13.8717 -38.6194 1.2983 44.9912 2.2716 0.0000 0.0000 0.0000 -11.6750 20.5201 -33.6018 16.4026 19.6869 79.4290 4.2395 8.6966 -42.4652 0.7840 -5.6528 -15.7802 0.0000 0.0000 0.0000 2.6097 -19.4504 -65.7120 -11.8060 -18.3074 65.3725 0.2732 9.4429 1.2885 -0.2481 -3.2048 8.8495 -8.0564 -0.6867 11.4851 0.2436 -2.1534 -3.7086 5.2422 -0.5007 -10.2166 -15.6116 -15.0216 5.1105 15.0339 -21.6197 5.5398 5.9605 -10.9095 4.1721 -0.0000 0.0000 0.0000 -76.1514 6.1568 79.6371 121.5793 -55.8742 -86.9697 -0.0000 0.0000 -83.6957 -10.4535 38.0037 -6.4809 -7.1250 0.0000 -0.0000 -51.7687 60.2643 -22.7561 -0.0000 0.0000 0.0000 68.0286 24.3695 3.2708 -86.4775 59.9531 -56.9499 0.0000 0.0000 18.1801 -48.6292 -24.1611 24.9262 7.1250 -0.0000 -0.0000 -24.9938 -62.4151 10.9413
